<svg width="30" height="30" viewBox="0 0 30 30" fill="none" xmlns="http://www.w3.org/2000/svg">
<path d="M23.66 30H6.34C4.65853 30 3.04592 29.332 1.85694 28.1431C0.667962 26.9541 0 25.3415 0 23.66V6.34C0 4.65853 0.667962 3.04592 1.85694 1.85694C3.04592 0.667962 4.65853 0 6.34 0H23.66C25.3415 0 26.9541 0.667962 28.1431 1.85694C29.332 3.04592 30 4.65853 30 6.34V23.66C30 25.3415 29.332 26.9541 28.1431 28.1431C26.9541 29.332 25.3415 30 23.66 30V30ZM6.34 2C5.18896 2 4.08506 2.45725 3.27116 3.27116C2.45725 4.08506 2 5.18896 2 6.34V23.66C2 24.811 2.45725 25.9149 3.27116 26.7288C4.08506 27.5428 5.18896 28 6.34 28H23.66C24.811 28 25.9149 27.5428 26.7288 26.7288C27.5428 25.9149 28 24.811 28 23.66V6.34C28 5.18896 27.5428 4.08506 26.7288 3.27116C25.9149 2.45725 24.811 2 23.66 2H6.34Z" fill="#3D3D3D"/>
<path d="M15 22.53C13.5107 22.53 12.0548 22.0883 10.8165 21.2609C9.57823 20.4335 8.61309 19.2575 8.04316 17.8816C7.47323 16.5057 7.32411 14.9916 7.61466 13.5309C7.90521 12.0703 8.62237 10.7285 9.67546 9.67546C10.7285 8.62237 12.0703 7.90521 13.5309 7.61466C14.9916 7.32411 16.5057 7.47323 17.8816 8.04316C19.2575 8.61309 20.4335 9.57823 21.2609 10.8165C22.0883 12.0548 22.53 13.5107 22.53 15C22.5273 16.9962 21.7331 18.91 20.3216 20.3216C18.91 21.7331 16.9962 22.5273 15 22.53V22.53ZM15 9.45997C13.9067 9.45998 12.8379 9.78405 11.9287 10.3913C11.0195 10.9985 10.3107 11.8615 9.89188 12.8714C9.47304 13.8813 9.36294 14.9927 9.57551 16.0652C9.78808 17.1376 10.3138 18.123 11.0862 18.8967C11.8585 19.6705 12.843 20.198 13.915 20.4125C14.9871 20.627 16.0986 20.5189 17.1093 20.1019C18.1199 19.6849 18.9843 18.9776 19.5931 18.0695C20.202 17.1615 20.528 16.0933 20.53 15C20.5273 13.5341 19.9439 12.1291 18.9074 11.0926C17.8709 10.0561 16.4658 9.47262 15 9.46997V9.45997Z" fill="#3D3D3D"/>
<path d="M23.46 8.90003C22.9553 8.90201 22.4613 8.75414 22.0406 8.47515C21.6199 8.19616 21.2916 7.7986 21.097 7.33282C20.9025 6.86705 20.8506 6.35402 20.9478 5.85871C21.0451 5.3634 21.2871 4.9081 21.6434 4.55047C21.9996 4.19285 22.4539 3.94899 22.9489 3.84978C23.4438 3.75058 23.957 3.80049 24.4235 3.9932C24.8901 4.1859 25.2889 4.51273 25.5696 4.93229C25.8502 5.35185 26 5.84526 26 6.35003C25.9974 7.0238 25.7293 7.66938 25.2538 8.14674C24.7783 8.62411 24.1338 8.89477 23.46 8.90003ZM23.46 4.79003C23.1535 4.78806 22.8532 4.87703 22.5972 5.04571C22.3413 5.21438 22.141 5.45517 22.0219 5.73763C21.9028 6.02009 21.8701 6.33154 21.9279 6.63258C21.9858 6.93363 22.1316 7.21076 22.347 7.42892C22.5624 7.64708 22.8376 7.79648 23.1379 7.85823C23.4381 7.91998 23.75 7.8913 24.034 7.77581C24.3179 7.66033 24.5613 7.46324 24.7332 7.20945C24.9052 6.95566 24.998 6.65658 25 6.35003C25.0001 5.93973 24.8385 5.54594 24.5502 5.25396C24.262 4.96197 23.8703 4.79529 23.46 4.79003Z" fill="#3D3D3D"/>
</svg>
