<svg width="19" height="30" viewBox="0 0 19 30" fill="none" xmlns="http://www.w3.org/2000/svg">
<path d="M17.8445 0H13.3923C8.40581 0 5.16459 2.8972 5.16459 7.38318V10.7788H0.712357C0.320561 10.7788 0 11.0592 0 11.4019V16.324C0 16.6667 0.320561 16.947 0.712357 16.947H5.16459V29.3769C5.16459 29.7196 5.48515 30 5.87695 30H11.7183C12.1101 30 12.4306 29.7196 12.4306 29.3769V16.9159H17.6665C18.0583 16.9159 18.3788 16.6355 18.3788 16.2928V11.3707C18.3788 11.215 18.3076 11.0592 18.1651 10.9346C18.0226 10.81 17.8445 10.7477 17.6665 10.7477H12.395V7.88162C12.395 6.5109 12.7868 5.79439 14.817 5.79439H17.8089C18.2007 5.79439 18.5213 5.51402 18.5213 5.17134V0.623053C18.5213 0.280374 18.2363 0 17.8445 0Z" fill="#3D3D3D"/>
</svg>
