<svg width="113" height="39" viewBox="0 0 113 39" fill="none" xmlns="http://www.w3.org/2000/svg">
<path d="M6.03029 26.6671V27.5867C6.03029 32.1845 8.04039 34.4563 12.2236 34.4563C16.0264 34.4563 17.9279 31.7517 17.9279 28.9931C17.9279 25.0444 15.9178 23.3135 12.5495 22.3398L8.42067 20.9334C2.87933 18.8239 0.543269 15.957 0.543269 10.6019C0.543269 3.78641 5.16106 0 12.2236 0C21.8938 0 22.8716 6.00416 22.8716 9.89875V10.7642H16.8957V9.95284C16.8957 6.54508 15.3745 4.54369 11.626 4.54369C9.01827 4.54369 6.57356 5.95007 6.57356 9.95284C6.57356 13.1442 8.20337 14.767 12.2236 16.3356L16.2981 17.7961C21.5678 19.6352 23.9038 22.5562 23.9038 27.6949C23.9038 35.7004 19.0688 39 11.463 39C2.11875 39 0 32.7795 0 27.5326V26.613H6.03029V26.6671Z" fill="#3D3D3D"/>
<path d="M28.413 0.757324H34.1173V21.853H34.2259L42.8096 10.007L49.3832 9.95289L40.8538 20.8794L50.524 38.2428H44.2764L37.3226 25.369L34.1173 29.2636V38.2428H28.413V0.757324Z" fill="#3D3D3D"/>
<path d="M57.4236 24.8821V26.5048C57.4236 30.2913 57.9125 35.1054 62.15 35.1054C66.2245 35.1054 66.7135 30.5076 66.7135 28.7767H72.0918C72.0918 35.0513 68.2889 38.9459 62.0957 38.9459C57.4779 38.9459 51.7192 37.5936 51.7192 24.5035C51.7192 17.0929 53.2947 9.19556 62.2043 9.19556C70.1361 9.19556 72.2548 13.9015 72.2548 21.7989V24.8821H57.4236ZM66.5505 20.9875V19.4729C66.5505 15.9029 65.4096 13.1442 62.15 13.1442C58.5101 13.1442 57.4236 16.7143 57.4236 20.3925V20.9875H66.5505Z" fill="#3D3D3D"/>
<path d="M76.9269 10.0069H82.6312V14.4424H82.7399C83.9894 11.3051 86.1081 9.30371 89.3134 9.30371C89.9654 9.30371 90.2913 9.41189 90.6716 9.52008V15.3079C90.237 15.1997 89.2591 14.9833 88.2812 14.9833C85.6735 14.9833 82.5769 16.1192 82.5769 21.4202V38.3509H76.8726V10.0069H76.9269Z" fill="#3D3D3D"/>
<path d="M98.1687 24.8821V26.5048C98.1687 30.2913 98.6577 35.1054 102.895 35.1054C106.97 35.1054 107.459 30.5076 107.459 28.7767H112.837C112.837 35.0513 109.034 38.9459 102.841 38.9459C98.2231 38.9459 92.4644 37.5936 92.4644 24.5035C92.4644 17.0929 94.0399 9.19556 102.95 9.19556C110.881 9.19556 113 13.9015 113 21.7989V24.8821H98.1687ZM107.296 20.9875V19.4729C107.296 15.9029 106.155 13.1442 102.895 13.1442C99.2553 13.1442 98.1687 16.7143 98.1687 20.3925V20.9875H107.296Z" fill="#3D3D3D"/>
</svg>
