<svg width="36" height="30" viewBox="0 0 36 30" fill="none" xmlns="http://www.w3.org/2000/svg">
<path d="M23.8184 2.23602C25.5579 2.23602 27.0754 2.86957 28.3708 4.13665C28.4448 4.21118 28.5188 4.24845 28.5929 4.24845C28.6299 4.24845 28.6299 4.24845 28.6669 4.24845C29.9623 3.95031 31.0726 3.50311 32.0719 2.98137C32.1089 2.9441 32.479 2.75776 32.5531 2.7205C32.0349 4.24845 31.1096 5.40373 29.7772 6.26087C30.4064 6.18633 30.9986 6.07453 31.5908 5.92547C32.183 5.7764 32.7751 5.5528 33.4043 5.29193C33.1082 5.73913 32.8121 6.14907 32.479 6.52174C31.8498 7.26708 31.1096 7.93789 30.3324 8.53416C30.2584 8.6087 30.2214 8.64596 30.2214 8.75776C30.2214 9.13043 30.2214 9.46584 30.2214 9.83851C30.2214 9.83851 30.2214 9.83851 30.2214 9.87578C30.0733 14.3106 28.5558 18.2609 25.706 21.6894C23.3743 24.4099 20.4874 26.2733 17.0083 27.205C15.935 27.5031 14.8247 27.6894 13.7513 27.8012C13.6033 27.8012 13.4552 27.8012 13.2702 27.8012C13.0481 27.8012 12.8631 27.8012 12.641 27.8012C12.2339 27.8012 11.8267 27.8012 11.4566 27.8012C11.1975 27.8012 10.9385 27.8012 10.6424 27.8012C9.75411 27.8012 8.90285 27.6522 8.05159 27.4658C5.97896 27.0186 4.09138 26.236 2.27783 25.118C2.24082 25.0807 2.2038 25.0435 2.16679 25.0062C2.64794 25.0435 3.09207 25.0807 3.57322 25.0807C4.75758 25.0807 5.97896 24.9317 7.12631 24.5963C8.7548 24.1491 10.2353 23.4037 11.5677 22.323C8.64377 22.0621 6.64516 20.5714 5.60884 17.8509C5.97896 17.9255 6.38608 17.9255 6.75619 17.9255C7.31136 17.9255 7.90354 17.8509 8.45871 17.7019C6.97826 17.3665 5.75689 16.5839 4.79459 15.3913C3.8323 14.1988 3.38816 12.8199 3.38816 11.2547C4.27644 11.7391 5.23873 12.0373 6.23804 12.0373C4.86862 11.0311 3.98035 9.76397 3.61023 8.12422C3.24012 6.48447 3.4992 4.91925 4.31345 3.42857C4.42448 3.54037 4.4985 3.61491 4.57253 3.72671C7.27435 6.89441 10.6424 8.90683 14.7136 9.80124C15.6019 9.98758 16.4532 10.0994 17.3414 10.1739C17.3784 10.1739 17.4154 10.1739 17.4525 10.1739H17.4895C17.5635 10.1739 17.5635 10.1366 17.5635 10.0248C17.4525 9.46584 17.4154 8.86956 17.4525 8.31056C17.5635 6.48447 18.3037 4.99379 19.6731 3.80124C20.6724 2.90683 21.8198 2.38509 23.1522 2.27329C23.3002 2.27329 23.5593 2.23602 23.8184 2.23602ZM23.8184 0C23.4853 0 23.1892 -3.6096e-08 22.8561 0.037267C21.0796 0.223602 19.4881 0.931677 18.1187 2.12422C16.4532 3.61491 15.4538 5.44099 15.1948 7.63975C15.1578 7.63975 15.1578 7.63975 15.1207 7.63975C11.5306 6.85714 8.60676 5.10559 6.20102 2.27329L6.05298 2.08696L5.97896 1.97516C5.57183 1.49068 4.94264 1.19255 4.27644 1.19255C4.20241 1.19255 4.12839 1.19255 4.05437 1.19255C3.31414 1.26708 2.68495 1.67702 2.35185 2.31056C1.24151 4.28571 0.94542 6.40994 1.42657 8.57143C1.50059 8.9441 1.61162 9.31677 1.75967 9.68944C1.38956 10.0994 1.16749 10.6584 1.16749 11.2174C1.16749 13.3043 1.79668 15.1677 3.09207 16.7329C3.24012 16.9193 3.35115 17.0683 3.4992 17.2174C3.38816 17.6646 3.42518 18.1118 3.57322 18.559C4.20241 20.1615 5.09069 21.4658 6.23804 22.4348C5.38678 22.6584 4.4985 22.7702 3.61023 22.7702C3.24012 22.7702 2.833 22.7329 2.42587 22.6957C2.35185 22.6957 2.27783 22.6957 2.2038 22.6957C1.38956 22.6957 0.612318 23.1429 0.242205 23.9255C-0.164919 24.7453 -0.0538852 25.7143 0.538295 26.4224C0.723352 26.646 0.908408 26.795 1.16749 26.9441C3.20311 28.2112 5.34976 29.1056 7.64446 29.5901C8.56975 29.7764 9.60606 29.9627 10.6794 30C10.9385 30 11.2346 30 11.4936 30H12.1969H12.678C12.789 30 12.8631 30 12.9741 30C13.0851 30 13.1962 30 13.3442 30C13.6033 30 13.7883 30 14.0104 29.9627C15.2688 29.8509 16.4902 29.6273 17.6745 29.2919C21.5237 28.323 24.8177 26.1988 27.3715 23.1056C30.5174 19.3789 32.22 15.0186 32.405 10.1366C32.442 9.98758 32.442 9.83851 32.405 9.68944C33.0342 9.1677 33.5894 8.57143 34.1445 7.97515C34.5517 7.49068 34.8848 7.04348 35.2179 6.55901C35.477 6.18634 35.625 5.73913 35.625 5.29193C35.625 4.50932 35.2549 3.83851 34.6627 3.42857C34.9588 2.53416 34.6997 1.56522 33.9595 1.00621C33.5524 0.670807 33.0342 0.484472 32.5531 0.484472C32.183 0.484472 31.8128 0.596273 31.4797 0.782609L31.4057 0.819876C31.2947 0.89441 31.1096 0.968944 31.0356 1.00621C30.3694 1.34161 29.7402 1.63975 29.074 1.82609C27.5565 0.63354 25.78 0 23.8184 0Z" fill="#3D3D3D"/>
</svg>
